<svg xmlns="http://www.w3.org/2000/svg" buffered-rendering="static" xmlns:xlink="http://www.w3.org/1999/xlink" width="100px" height="75px" viewBox="0 0 100 75">
<desc>
This file was created by http://www.h2.dion.ne.jp/~defghi/img2svg3/img2svg3.htm at Tue Nov 08 2016 14:32:30 GMT+0900 (JST)
</desc>
<defs>
<g id="rgb" style="isolation:isolate;">
<g id="r" style="mix-blend-mode:screen;">
<path d="M50 0l-50 0 0 37.5 0 37.5 50 0 50 0 0-37.5 0-37.5-50 0Z" style="fill:rgb(255,0,0);"/>
<path d="M8 31c-1.2 0-1.4 .9-.8 5.2 .4 2.9 .3 5.8-.2 6.3-.6 .6-.3 1.1 .8 1.2 1.4 .1 1.7-.8 1.7-6.3 0-5-.3-6.4-1.5-6.4ZM23.1 31.7c-.3-.4-.9-.1-1.3 .8-.5 .8-.4 1.5 .2 1.5 .6 0 1.2 1.1 1.5 2.5 .3 1.4 1 2.3 1.5 2 .6-.3 .6-1.5-.2-3.2-.6-1.6-1.4-3.2-1.7-3.6ZM32.3 31c-.7 0 .8 2.7 3.5 6 2.6 3.3 4.8 6 5 6 .1 0 .2-.6 .2-1.2 .1-.7-1.6-3.4-3.7-6-2.1-2.7-4.4-4.8-5-4.8ZM41 30.9c-.8 0-1.2 .4-.7 .8l0.7 .8 .8-.8c0.4-.4 0-.8-.8-.8ZM50 31c-1.1 0-2.9 .9-4 2-1.1 1.1-2 3.1-2 4.5 0 1.4 .9 3.4 2 4.5 1.1 1.1 3 2 4.3 1.9l2.2-.1-2.5-.7c-1.4-.4-2.9-1.9-3.5-3.3-.7-1.9-.6-3.4 .3-5.2 .7-1.6 2-2.6 3.5-2.6 1.2 0 2.8 .5 3.5 1.2 1 1 1.2 1 1.2 .1 0-.7-.7-1.5-1.5-1.8-.8-.3-2.4-.5-3.5-.5ZM63.5 31c-1.4 0-3.4 .9-4.5 2-1.1 1.1-2 3.2-2 4.8-.1 1.5 .9 3.6 2 4.7 1.1 1.1 2.2 1.8 2.5 1.5 .3-.3-.2-1.2-1-2-.9-.8-1.6-2.6-1.6-4 .1-1.4 .6-3.3 1.3-4.3 .8-1.2 2.2-1.7 3.8-1.5 2.2 .3 2.5 .9 2.8 4.8 .2 3.4-.1 4.8-1.5 5.8-1 .7-1.3 1.2-.8 1.2 .6 0 2-1 3.2-2.2 1.3-1.3 2.3-3 2.3-3.8 0-.8-.8-2.7-2-4.2-1.2-1.8-2.9-2.8-4.5-2.8ZM73.8 31c-.9 0-1.2 1.2-.9 3.3 .2 2.3 .5 2.8 1.1 1.7 .6-1.1 1.1-.6 2.1 2.3 .8 2 1.7 3.7 2.2 3.7 .4 0 .9-1 1.2-2.2 .3-1.3 .2-2-.2-1.5-.5 .4-1.6-1.1-2.5-3.3-1-2.2-2.4-4-3-4ZM82.8 32c-.5 0-1 .7-1.3 1.5-.3 .8 0 1.7 .5 2 .6 .3 1 2.3 1 4.5 0 2.2 .5 4 1 4 .6 0 1-1 1-2.2 0-1.3-.4-4-.8-6.1-.4-2-1-3.7-1.4-3.7ZM91 32c-.5 0-1 1.7-1 3.8 0 2-.2 4.7-.5 6-.3 1.2 0 2.2 .5 2.2 .6 0 1-1.3 1-3 0-2.7 .3-3 3-3 1.7 0 3-.3 3-.7 0-.5-1.2-.7-2.5-.5-2.1 .2-2.5-.2-2.5-2.3 0-1.4-.4-2.5-1-2.5ZM96 32.2c-1.4 0-1.9 .1-1.2 .4l1.2 .4 1.3-.4c0.6-.3 .1-.4-1.3-.4ZM21 36.5c-.3-.3-.9 .3-1.3 1.2-.7 1.5-.6 1.6 .5 .6 .7-.7 1.1-1.5 .8-1.8ZM27.1 41.3c-.4-1-1.1-1.4-1.4-.8-.3 .6-.2 1.7 .3 2.5 .5 .8 1.1 1.2 1.4 .8 .3-.5 .2-1.6-.3-2.5ZM72.7 40.5c-.3-.5-.5 .1-.5 1.5 0 1.4 .2 1.8 .5 1l0.5-1.5-.5-1ZM14.8 42c-.2 0-1 .5-1.8 1-1 .6-1.1 1-.2 1 .6 0 1.4-.4 1.7-1 .3-.5 .4-1 .3-1ZM32 43.2c-1.4 0-1.9 .1-1.2 .4l1.2 .4 1.3-.4c0.6-.3 .1-.4-1.3-.4ZM96.5 43c-.3 0-.7 .5-1 1-.3 .6 0 1 .5 1 .6 0 1-.4 1-1 0-.5-.2-1-.5-1ZM36.6 48.5c-.2-.5-.4 .4-.4 2 0 1.9 .2 2.3 .5 1 .2-1.1 .2-2.4-.1-3ZM40.7 48.3c-.4-.5-.8-.1-.8 .7 0 .8 .4 1.2 .8 .8l0.8-.8-.8-.7ZM44.8 48c-.2 0-.9 1.2-1.6 2.7l-1.2 2.8 1.5-2c0.8-1.1 1.5-2.3 1.5-2.7 0-.5-.1-.8-.2-.8ZM53.5 50.3l-2.5-2.3 0 2.8c0 2 .3 2.3 .9 1.2l0.9-1.5 1.7 1.5c0.9 .8 1.6 1.3 1.6 1 0-.3-1.2-1.5-2.6-2.7ZM55 48c-.5 0-.8 .5-.5 1 .3 .6 .7 1 1 1 .3 0 .5-.4 .5-1 0-.5-.4-1-1-1ZM59.6 48.5c-.2-.5-.4 .4-.4 2 0 1.9 .2 2.3 .5 1 .2-1.1 .2-2.4-.1-3ZM65.5 48c-1.1 0-2.4 .3-2.8 .7-.4 .5 .3 1.4 1.5 2.1l2.3 1.3-2.2-.5c-1.4-.4-2.1-.2-1.8 .4 .3 .6 1.4 1 2.5 1 1.1 0 2-.7 2-1.5 0-.8-.8-1.5-1.7-1.6-1.5 0-1.5-.2 .2-.9l2-.9-2-.1ZM47 50c-.5-.8-1-1-1-.5 0 .6 .5 1.7 1 2.5 .5 .8 1 1.1 1 .5 0-.5-.5-1.7-1-2.5Z" style="fill:rgb(0,0,0);"/>
</g>
<g id="g" style="mix-blend-mode:screen;">
<path d="M50 0l-50 0 0 37.5 0 37.5 50 0 50 0 0-37.5 0-37.5-50 0Z" style="fill:rgb(0,255,0);"/>
<path d="M8 31c-1.2 0-1.4 .9-.8 5.2 .4 2.9 .3 5.8-.2 6.3-.6 .6-.3 1.1 .8 1.2 1.4 .1 1.7-.8 1.7-6.3 0-5-.3-6.4-1.5-6.4ZM23.1 31.7c-.3-.4-.9-.1-1.3 .8-.5 .8-.4 1.5 .2 1.5 .6 0 1.2 1.1 1.5 2.5 .3 1.4 1 2.3 1.5 2 .6-.3 .6-1.5-.2-3.2-.6-1.6-1.4-3.2-1.7-3.6ZM32.3 31c-.7 0 .8 2.7 3.5 6 2.6 3.3 4.8 6 5 6 .1 0 .2-.6 .2-1.2 .1-.7-1.6-3.4-3.7-6-2.1-2.7-4.4-4.8-5-4.8ZM41 30.9c-.8 0-1.2 .4-.7 .8l0.7 .8 .8-.8c0.4-.4 0-.8-.8-.8ZM50 31c-1.1 0-2.9 .9-4 2-1.1 1.1-2 3.1-2 4.5 0 1.4 .9 3.4 2 4.5 1.1 1.1 3 2 4.3 1.9l2.2-.1-2.5-.7c-1.4-.4-2.9-1.9-3.5-3.3-.7-1.9-.6-3.4 .3-5.2 .7-1.6 2-2.6 3.5-2.6 1.2 0 2.8 .5 3.5 1.2 1 1 1.2 1 1.2 .1 0-.7-.7-1.5-1.5-1.8-.8-.3-2.4-.5-3.5-.5ZM63.3 31c-1.3 0-3.2 .9-4.3 2-1.1 1.1-2 3.2-2 4.8-.1 1.5 .9 3.6 2 4.7 1.1 1.1 2.2 1.8 2.5 1.5 .3-.3-.2-1.2-1-2-.9-.8-1.6-2.6-1.6-4 .1-1.4 .6-3.3 1.3-4.3 .8-1.2 2.2-1.7 3.8-1.5 2.2 .3 2.5 .9 2.8 4.8 .2 3.4-.1 4.8-1.5 5.8-1 .7-1.3 1.2-.8 1.2 .6 0 2-1 3.2-2.2 1.3-1.3 2.3-3.2 2.3-4.3 0-1.1-1-3-2.2-4.2-1.3-1.3-3.3-2.3-4.5-2.3ZM73.8 31c-.9 0-1.2 1.2-.9 3.3 .2 2.3 .5 2.8 1.1 1.7 .6-1.1 1.1-.6 2.1 2.3 .8 2 1.7 3.7 2.2 3.7 .4 0 .9-.8 1.2-1.7 .3-1 .3-2 0-2.3-.3-.3-.6 0-.5 .5 0 .6-.9-.9-2-3.2-1.1-2.4-2.6-4.3-3.2-4.3ZM82.8 32c-.5 0-1 .7-1.3 1.5-.3 .8 0 1.7 .5 2 .6 .3 1 2.3 1 4.5 0 2.2 .5 4 1 4 .6 0 1-1 1-2.2 0-1.3-.4-4-.8-6.1-.4-2-1-3.7-1.4-3.7ZM91 32c-.5 0-1 1.7-1 3.8 0 2-.2 4.7-.5 6-.3 1.2 0 2.2 .5 2.2 .6 0 1-1.3 1-3 0-2.7 .3-3 3-3 1.7 0 3-.3 3-.7 0-.5-1.2-.7-2.5-.5-2.1 .2-2.5-.2-2.5-2.3 0-1.4-.4-2.5-1-2.5ZM96 32.2c-1.4 0-1.9 .1-1.2 .4l1.2 .4 1.3-.4c0.6-.3 .1-.4-1.3-.4ZM20.5 37c-.3 0-.8 .6-1.2 1.2-.5 .9-.4 1 .5 .5 .6-.4 1.2-.9 1.2-1.2 0-.3-.2-.5-.5-.5ZM27.1 41.3c-.4-1-1.1-1.4-1.4-.8-.3 .6-.2 1.7 .3 2.5 .5 .8 1.1 1.2 1.4 .8 .3-.5 .2-1.6-.3-2.5ZM72.7 40.5c-.3-.5-.5 .1-.5 1.5 0 1.4 .2 1.8 .5 1l0.5-1.5-.5-1ZM14.8 42c-.2 0-1 .5-1.8 1-1 .6-1.1 1-.2 1 .6 0 1.4-.4 1.7-1 .3-.5 .4-1 .3-1ZM97.8 42c-.2-.1-1 .6-1.8 1.5-1.1 1.1-1.1 1.6-.2 1.5 .6 0 1.4-.7 1.7-1.5 .3-.8 .4-1.5 .3-1.5ZM32 43.2c-1.4 0-1.9 .1-1.2 .4l1.2 .4 1.3-.4c0.6-.3 .1-.4-1.3-.4ZM36.6 48.5c-.2-.5-.4 .4-.4 2 0 1.9 .2 2.3 .5 1 .2-1.1 .2-2.4-.1-3ZM40.7 48.3c-.4-.5-.8-.1-.8 .7 0 .8 .4 1.2 .8 .8l0.8-.8-.8-.7ZM44.8 48c-.2 0-.9 1.2-1.6 2.7l-1.2 2.8 1.5-2c0.8-1.1 1.5-2.3 1.5-2.7 0-.5-.1-.8-.2-.8ZM53.5 50.3l-2.5-2.3 0 2.8c0 2 .3 2.3 .9 1.2l0.9-1.5 1.7 1.5c0.9 .8 1.6 1.3 1.6 1 0-.3-1.2-1.5-2.6-2.7ZM55 48c-.5 0-.8 .5-.5 1 .3 .6 .7 1 1 1 .3 0 .5-.4 .5-1 0-.5-.4-1-1-1ZM59.6 48.5c-.2-.5-.4 .4-.4 2 0 1.9 .2 2.3 .5 1 .2-1.1 .2-2.4-.1-3ZM65.5 48c-1.1 0-2.4 .3-2.8 .7-.4 .5 .3 1.4 1.5 2.1l2.3 1.3-2.2-.5c-1.4-.4-2.1-.2-1.8 .4 .3 .6 1.4 1 2.5 1 1.1 0 2-.7 2-1.5 0-.8-.8-1.5-1.7-1.6-1.5 0-1.5-.2 .2-.9l2-.9-2-.1ZM47 50c-.5-.8-1-1-1-.5 0 .6 .5 1.7 1 2.5 .5 .8 1 1.1 1 .5 0-.5-.5-1.7-1-2.5ZM99.8 62.1c-.2 0-.9 .2-1.5 .5-.7 .2-1.3 1.3-1.3 2.4 0 1.1-.4 2-1 2-.5 0-.8-.4-.5-1 .3-.5-.2-1-1-1-.8 0-1.5 .5-1.5 1 0 .6-.4 .8-1 .5-.6-.3-.7 .4-.3 1.8 .6 1.9 .4 2.1-1.5 1.5-1.5-.6-2.6-.3-3.4 .8-.7 .8-1.7 1.3-2.3 1-.5-.3-1.6 .1-2.3 .7-1 .9-1.5 .9-2.3-.3-.9-1.3-1-1.2-.5 .3 .5 1.4-.1 1.8-3.1 2-2.1 .2 2.4 .4 10 .5l13.7 .2 0-6.5c0-3.6-.1-6.5-.2-6.4Z" style="fill:rgb(0,0,0);"/>
</g>
<g id="b" style="mix-blend-mode:screen;">
<path d="M50 0l-50 0 0 37.5 0 37.5 50 0 50 0 0-37.5 0-37.5-50 0Z" style="fill:rgb(0,0,255);"/>
<path d="M8 31c-1.2 0-1.4 .9-.8 5.2 .4 2.9 .3 5.8-.2 6.3-.6 .6-.3 1.1 .8 1.2 1.4 .1 1.7-.8 1.7-6.3 0-5-.3-6.4-1.5-6.4ZM23.1 31.7c-.3-.4-.9-.1-1.3 .8-.5 .8-.4 1.5 .2 1.5 .6 0 1.2 1.1 1.5 2.5 .3 1.4 1 2.3 1.5 2 .6-.3 .6-1.5-.2-3.2-.6-1.6-1.4-3.2-1.7-3.6ZM32.5 31c-1 0 .2 2.1 3.3 6 2.6 3.3 4.8 6 5 6 .1 0 .2-.7 .2-1.5 0-.8-.9-2.4-2-3.5-1.1-1.1-2.7-3.1-3.5-4.5-.8-1.4-2.2-2.5-3-2.5ZM49.8 31.1l-2.3 .2 2.5 .4c1.4 .3 3.1 1 3.8 1.6 1 .9 1.3 .9 1.2 0 0-.7-.7-1.5-1.5-1.8-.8-.3-2.5-.4-3.7-.4ZM63.3 31c-1.3 0-3.2 .9-4.3 2-1.1 1.1-2 3.2-2 4.8-.1 1.5 .7 3.5 1.7 4.4 1 1 2.5 1.8 3.3 1.8 1 0 .7-.5-.7-1.5-1.4-.9-2.3-2.5-2.3-4 0-1.4 .5-3.4 1-4.5 .6-1.2 2-2 3.5-2 1.4 0 2.7 .7 3 1.5 .3 .8 .5 3.1 .5 5 0 2.3-.6 3.8-1.7 4.5-1 .5-1.2 1-.5 1 .6 0 2.1-1 3.2-2.2 1.1-1.3 2-3.2 2-4.3 0-1.1-1-3-2.2-4.2-1.3-1.3-3.3-2.3-4.5-2.3ZM73.8 31c-.9 0-1.2 1.2-.9 3.3 .2 2.3 .5 2.8 1.1 1.7 .6-1.1 1.1-.6 2.1 2.3 .8 2 1.7 3.7 2.2 3.7 .4 0 .9-1 1.2-2.2 .3-1.3 .2-2-.2-1.5-.5 .4-1.6-1.1-2.5-3.3-1-2.2-2.4-4-3-4ZM46.5 32c-.3 0-.9 .9-1.5 2-.5 1.1-1 2.9-1 4 0 1.1 .9 2.9 2 4 1.1 1.1 3 1.9 4.3 1.9l2.2-.2-2.2-.3c-1.3-.2-2.8-1.4-3.4-2.6-.6-1.3-.8-3.8-.5-5.5 .3-1.8 .4-3.3 .1-3.3ZM82.8 32c-.5 0-1 .7-1.3 1.5-.3 .8 0 1.7 .5 2 .6 .3 1 2.3 1 4.5 0 2.2 .5 4 1 4 .6 0 1-1 1-2.2 0-1.3-.4-4-.8-6.1-.4-2-1-3.7-1.4-3.7ZM91 32c-.5 0-1 1.2-1 2.8 0 1.5-.3 4.2-.7 6-.5 2-.4 3.2 .2 3.2 .6 0 1.3-1.3 1.8-3 .5-2.3 1.3-3 3.2-3 1.4 0 2.5-.3 2.5-.7 0-.5-1.2-.7-2.5-.5-2.1 .2-2.5-.2-2.5-2.3 0-1.4-.4-2.5-1-2.5ZM96 32c-1.1 0-2 .2-2 .5 0 .3 .9 .7 2 1 1.1 .3 2 .1 2-.5 0-.5-.9-1-2-1ZM98.5 39l-.5 0 .5 1c0.3 .6 .7 1 1 1l0.5 0-.5-1c-.3-.5-.7-1-1-1ZM26.5 40c-.3 0-.7 .3-.9 .8-.3 .4-.1 1.4 .4 2.2 .5 .8 1.2 1.1 1.7 .6 .4-.5 .2-1-.4-1.2-.7-.2-1.1-.8-.8-1.4l0.5-1-.5 0ZM72.7 40.5c-.3-.5-.5 .1-.5 1.5 0 1.4 .2 1.8 .5 1l0.5-1.5-.5-1ZM16 41c-.3 0-1.4 .7-2.5 1.5-1.1 .9-1.5 1.5-1 1.6 .6 0 1.7-.7 2.5-1.6 .8-.9 1.3-1.6 1-1.5ZM99 42.1c-.8 0-2.4 .6-3.5 1.4-1.4 .9-1.6 1.4-.7 1.7 .9 .2 .6 1.1-1 2.8-1.3 1.3-2.2 2.8-2 3.2 .1 .5-.8 .5-2 .2-1.8-.4-2-.3-.8 .5 1.2 .8 .6 1.1-2.5 1.2-2.2 .1-4.6 .1-5.2 0-.7 0-1.2 .5-1 1.2 .1 .6-.4 1.1-1 1-.7-.2-1.2 .3-1 1 .1 .6-.4 1.1-1 1-.7-.2-1.1 .2-.8 .7 .3 .6-.2 1-1 1-.9 0-1.2-.5-.8-1.2 .6-1 .4-1-.7-.3-.8 .5-2.4 1.1-3.5 1.2-1.1 .2-2.6 .4-3.3 .6-.7 .1-1.2 .9-1.1 1.7 .1 .8 .1 2 0 2.5 0 .6-.8 .1-1.7-1-.8-1.1-1.3-1.4-1-.7 .3 .6-.5 2.1-1.9 3.2-1.4 1.1-2.5 2.5-2.5 3 0 .6-.7 1.7-1.5 2.5-1.1 1.1-1.5 1.1-1.5 .3 .1-.9-.6-.7-1.7 .4-1 1-2.2 1.8-2.8 1.8-.5 .1-.3-.7 .5-1.6l1.5-1.7-2.7 1.6c-1.6 .9-2.8 2.2-2.8 2.7 0 .6 9.3 1 26 1l26 0 0-13.2 .1-13.3-2.3-1.2c-1.3-.6-1.7-1.2-1-1.2 .6-.1 1-.8 .7-1.6-.3-.9 .2-1.7 1.3-1.9 1.1-.2 1.2-.4 .2-.5ZM32 43.2c-1.4 0-1.9 .1-1.2 .4l1.2 .4 1.3-.4c0.6-.3 .1-.4-1.3-.4ZM99.5 44c-.3-.3-.5 .4-.4 1.5 0 1.4 .2 1.5 .6 .5 .2-.8 .2-1.7-.2-2ZM36.6 48.5c-.2-.5-.4 .4-.4 2 0 1.9 .2 2.3 .5 1 .2-1.1 .2-2.4-.1-3ZM40.7 48.3c-.4-.5-.8-.1-.8 .7 0 .8 .4 1.2 .8 .8l0.8-.8-.8-.7ZM44.8 49.1c-.2-.8-.9-.1-1.6 1.5l-1.3 2.9 1.6-1.5c0.9-.8 1.5-2.1 1.3-2.9ZM53.5 50.3l-2.5-2.3 0 2.8c0 2 .3 2.3 .9 1.2l0.9-1.5 1.7 1.5c0.9 .8 1.6 1.3 1.6 1 0-.3-1.2-1.5-2.6-2.7ZM55 48c-.5 0-.8 .5-.5 1 .3 .6 .7 1 1 1 .3 0 .5-.4 .5-1 0-.5-.4-1-1-1ZM59.6 48.5c-.2-.5-.4 .4-.4 2 0 1.9 .2 2.3 .5 1 .2-1.1 .2-2.4-.1-3ZM65.5 48c-1.1 0-2.4 .3-2.8 .7-.4 .5 .3 1.4 1.5 2.1l2.3 1.3-2.2-.5c-1.4-.4-2.1-.2-1.8 .4 .3 .6 1.4 1 2.5 1 1.1 0 2-.7 2-1.5 0-.8-.8-1.5-1.7-1.6-1.5 0-1.5-.2 .2-.9l2-.9-2-.1ZM47 50c-.5-.8-1-1-1-.5 0 .6 .5 1.7 1 2.5 .5 .8 1 1.1 1 .5 0-.5-.5-1.7-1-2.5ZM72.5 54l-.5 0 .5 1c0.3 .6 .7 1 1 1l0.5 0-.5-1c-.3-.5-.7-1-1-1ZM80.7 56.3l0.8 .7-.8 .8c-.4 .4-.8 0-.8-.8 0-.8 .4-1.2 .8-.7ZM71.8 59c0.1 0 0 .5-.3 1-.3 .6-1.1 1-1.7 1-.9 0-.8-.4 .2-1 .8-.5 1.6-1 1.8-1ZM62.5 65c0.3 0 .7 .5 1 1l0.5 1-.5 0c-.3 0-.7-.4-1-1l-.5-1 .5 0ZM46.7 73.3c-.4-.5-.8-.1-.8 .7 0 .8 .4 1.2 .8 .8l0.8-.8-.8-.7Z" style="fill:rgb(0,0,0);"/>
</g>
</g>
</defs>
<use xlink:href="#rgb"/>
</svg>