<svg id="illust" xmlns="http://www.w3.org/2000/svg" viewBox="0 0 1075 650"><defs><style>.cls-1{fill:none;stroke:#c1272d;stroke-miterlimit:10;stroke-width:2px;}</style></defs><title>tayory_card_general-01</title><path class="cls-1" d="M539.86,26a7.5,7.5,0,0,1-.94-3.9,7.47,7.47,0,0,1,3-4.84S532,23,531.12,32c-.48,5.11,1.94,11.4,5.31,11.86,3.88.53,9.07-6.65,7.8-10.93C543.62,30.84,541.77,30.31,539.86,26Z"/><polyline class="cls-1" points="502.83 88.5 502.83 65.23 517.38 65.23 517.38 88.5 529.85 88.5 529.85 49.68 544.39 49.68 544.39 88.5 556.1 88.5 556.1 65.23 570.65 65.23 570.65 88.5"/><line class="cls-1" x1="37.47" y1="88.5" x2="503.21" y2="88.5"/><line class="cls-1" x1="571.03" y1="88.5" x2="1036.77" y2="88.5"/><line class="cls-1" x1="37.47" y1="596.01" x2="1036.77" y2="596.01"/><path class="cls-1" d="M513,41.93a7.5,7.5,0,0,1-.94-3.9,7.47,7.47,0,0,1,3-4.84s-9.92,5.66-10.77,14.67c-.48,5.11,1.94,11.4,5.31,11.86,3.88.53,9.07-6.65,7.8-10.93C516.78,46.74,514.92,46.21,513,41.93Z"/><path class="cls-1" d="M566.08,41.93a7.5,7.5,0,0,1-.94-3.9,7.47,7.47,0,0,1,3-4.84s-9.92,5.66-10.77,14.67c-.48,5.11,1.94,11.4,5.31,11.86,3.88.53,9.07-6.65,7.8-10.93C569.84,46.74,568,46.21,566.08,41.93Z"/></svg>